<?xml version="1.0" encoding="iso-8859-1"?>
<!-- Generator: Adobe Illustrator 19.0.0, SVG Export Plug-In . SVG Version: 6.00 Build 0)  -->
<svg version="1.1" id="Capa_1" xmlns="http://www.w3.org/2000/svg" xmlns:xlink="http://www.w3.org/1999/xlink" x="0px" y="0px"
	 viewBox="0 0 512 512" style="enable-background:new 0 0 512 512;" xml:space="preserve">
<circle style="fill:#F5F5FF;" cx="256" cy="256" r="256"/>
<circle style="fill:#E6E6FF;" cx="256" cy="256" r="202.667"/>
<circle style="fill:#D7D7FF;" cx="256" cy="256" r="149.333"/>
<linearGradient id="SVGID_1_" gradientUnits="userSpaceOnUse" x1="-16.1555" y1="578.9375" x2="32.5275" y2="578.9375" gradientTransform="matrix(5.3333 0 0 -5.3333 212.3333 3343.6667)">
	<stop  offset="0" style="stop-color:#FFFFCF"/>
	<stop  offset="1" style="stop-color:#FFC4C3"/>
</linearGradient>
<path style="fill:url(#SVGID_1_);" d="M341.333,170.667l-38.4-38.4c-8.533-8.533-21.867-8.533-30.4,0l-140.267,140.8
	c-8.533,8.533-8.533,21.867,0,30.4l38.4,37.867l38.4,38.4c8.533,8.533,21.867,8.533,30.4,0l140.267-140.267
	c8.533-8.533,8.533-21.867,0-30.4L341.333,170.667z"/>
<linearGradient id="SVGID_2_" gradientUnits="userSpaceOnUse" x1="40.1875" y1="604.9375" x2="22.1875" y2="604.9375" gradientTransform="matrix(5.3333 0 0 -5.3333 212.3333 3343.6667)">
	<stop  offset="0" style="stop-color:#60A8FF"/>
	<stop  offset="1" style="stop-color:#C143FF"/>
</linearGradient>
<polygon style="fill:url(#SVGID_2_);" points="330.667,160 384,64 426.667,85.333 341.333,170.667 "/>
<linearGradient id="SVGID_3_" gradientUnits="userSpaceOnUse" x1="36.1875" y1="596.9375" x2="31.1875" y2="601.9375" gradientTransform="matrix(5.3333 0 0 -5.3333 212.3333 3343.6667)">
	<stop  offset="0" style="stop-color:#60A8FF"/>
	<stop  offset="1" style="stop-color:#C143FF"/>
</linearGradient>
<polygon style="fill:url(#SVGID_3_);" points="341.333,170.667 416,96 426.667,138.667 "/>
<linearGradient id="SVGID_4_" gradientUnits="userSpaceOnUse" x1="39.4816" y1="540.114" x2="-40.5184" y2="560.114" gradientTransform="matrix(5.3333 0 0 -5.3333 212.3333 3343.6667)">
	<stop  offset="0" style="stop-color:#60A8FF"/>
	<stop  offset="1" style="stop-color:#C143FF"/>
</linearGradient>
<polygon style="fill:url(#SVGID_4_);" points="181.333,352 128,448 85.333,426.667 170.667,341.333 "/>
<linearGradient id="SVGID_5_" gradientUnits="userSpaceOnUse" x1="-23.8125" y1="555.9375" x2="-7.8125" y2="555.9375" gradientTransform="matrix(5.3333 0 0 -5.3333 212.3333 3343.6667)">
	<stop  offset="0" style="stop-color:#60A8FF"/>
	<stop  offset="1" style="stop-color:#C143FF"/>
</linearGradient>
<polygon style="fill:url(#SVGID_5_);" points="170.667,341.333 96,416 85.333,373.333 "/>
<linearGradient id="SVGID_6_" gradientUnits="userSpaceOnUse" x1="-13.8125" y1="578.9375" x2="30.1875" y2="578.9375" gradientTransform="matrix(5.3333 0 0 -5.3333 212.3333 3343.6667)">
	<stop  offset="0" style="stop-color:#FFAACF"/>
	<stop  offset="1" style="stop-color:#FF3F9A"/>
</linearGradient>
<path style="fill:url(#SVGID_6_);" d="M138.667,266.667H352l21.333-21.333H160C160,245.333,138.667,265.6,138.667,266.667z"/>
<g>
	<circle style="fill:#FFFFFF;" cx="144" cy="90.667" r="16"/>
	<circle style="fill:#FFFFFF;" cx="298.667" cy="42.667" r="10.667"/>
	<circle style="fill:#FFFFFF;" cx="160" cy="170.667" r="10.667"/>
	<circle style="fill:#FFFFFF;" cx="442.667" cy="197.333" r="16"/>
	<circle style="fill:#FFFFFF;" cx="464" cy="304" r="5.333"/>
	<circle style="fill:#FFFFFF;" cx="32" cy="266.667" r="10.667"/>
	<circle style="fill:#FFFFFF;" cx="336" cy="357.333" r="5.333"/>
	<circle style="fill:#FFFFFF;" cx="90.667" cy="325.333" r="5.333"/>
</g>
<g>
</g>
<g>
</g>
<g>
</g>
<g>
</g>
<g>
</g>
<g>
</g>
<g>
</g>
<g>
</g>
<g>
</g>
<g>
</g>
<g>
</g>
<g>
</g>
<g>
</g>
<g>
</g>
<g>
</g>
</svg>
