<svg height="512pt" viewBox="0 0 512 512" width="512pt" xmlns="http://www.w3.org/2000/svg"><path d="m375.597656 179.238281 23.011719-.539062c38.640625-.90625 75.453125-16.664063 102.785156-43.996094-10.34375-10.339844-19.75-.9375-30.089843-11.277344-10.34375-10.34375-.9375-19.75-11.28125-30.089843-10.339844-10.34375-19.746094-.9375-30.085938-11.277344-10.34375-10.34375-.9375-19.746094-11.28125-30.089844-10.339844-10.339844-19.746094-.933594-30.085938-11.277344-10.339843-10.339844-.933593-19.746094-11.277343-30.085937-27.332031 27.332031-43.085938 64.144531-43.992188 102.785156l-.539062 23.007813zm0 0" fill="#ffe477"/><path d="m179.238281 375.597656-.539062 23.011719c-.90625 38.640625-16.664063 75.453125-43.996094 102.785156-10.339844-10.34375-.9375-19.75-11.277344-30.089843-10.34375-10.34375-19.75-.9375-30.089843-11.28125-10.34375-10.339844-.9375-19.746094-11.277344-30.085938-10.34375-10.34375-19.746094-.9375-30.089844-11.28125-10.339844-10.339844-.933594-19.746094-11.277344-30.085938-10.339844-10.339843-19.746094-.933593-30.085937-11.277343 27.332031-27.332031 64.144531-43.085938 102.785156-43.992188l23.007813-.539062zm0 0" fill="#ffe477"/><path d="m386.75 234.488281-152.265625 152.261719c-12.175781 12.179688-31.921875 12.179688-44.097656 0l-65.136719-65.136719c-12.179688-12.175781-12.179688-31.921875 0-44.097656l152.261719-152.265625c12.179687-12.175781 31.921875-12.175781 44.097656 0l65.140625 65.140625c12.175781 12.175781 12.175781 31.917969 0 44.097656zm0 0" fill="#b6e892"/><path d="m321.609375 125.25 65.140625 65.140625c12.175781 12.175781 12.175781 31.917969 0 44.097656l-17.214844 17.210938-109.234375-109.234375 17.214844-17.214844c12.175781-12.175781 31.917969-12.175781 44.09375 0zm-69.863281 244.238281-109.234375-109.234375-17.261719 17.261719c-11.683594 11.679687-12.15625 30.324219-1.429688 42.574219l68.089844 68.089844c12.25 10.726562 30.894532 10.253906 42.574219-1.429688zm-30.707032-187.761719-39.265624 39.261719 109.238281 109.238281 39.261719-39.261718zm0 0" fill="#ff3e6c"/><path d="m362.761719 136.402344.539062-23.011719c.632813-27.070313 8.558594-53.246094 22.644531-75.890625-5.972656-9.113281.617188-17.628906-8.648437-26.894531-27.332031 27.332031-43.089844 64.144531-43.996094 102.785156l-.539062 23.007813 42.835937 42.839843 23.011719-.539062c2.0625-.050781 4.121094-.140625 6.175781-.273438zm0 0" fill="#ffb655"/><path d="m153.421875 471.304688c-10.339844-10.34375-19.746094-.9375-30.089844-11.28125-10.339843-10.339844-.933593-19.746094-11.277343-30.085938-10.339844-10.34375-19.746094-.9375-30.085938-11.277344-10.339844-10.34375-.9375-19.746094-11.277344-30.089844-10.339844-10.339843-19.746094-.933593-30.085937-11.273437 25.871093-25.875 60.234375-41.371094 96.609375-43.722656l-.8125-.8125-23.007813.539062c-38.644531.90625-75.453125 16.664063-102.785156 43.996094 10.339844 10.339844 19.746094.933594 30.085937 11.273437 10.339844 10.34375.933594 19.746094 11.277344 30.089844 10.339844 10.339844 19.746094.933594 30.085938 11.277344 10.34375 10.339844.9375 19.746094 11.277344 30.085938 10.34375 10.34375 19.746093.9375 30.089843 11.28125s.9375 19.746093 11.28125 30.089843c8.183594-8.183593 15.328125-17.214843 21.347657-26.894531-.695313-1.054688-1.554688-2.121094-2.632813-3.195312zm0 0" fill="#ffb655"/><path d="m220.386719 386.75-65.136719-65.136719c-12.179688-12.175781-12.179688-31.921875 0-44.097656l152.261719-152.265625c2.144531-2.140625 4.523437-3.90625 7.050781-5.296875-11.84375-6.5-27.011719-4.738281-37.046875 5.296875l-152.265625 152.265625c-12.175781 12.175781-12.175781 31.921875 0 44.097656l65.136719 65.136719c10.035156 10.035156 25.207031 11.800781 37.050781 5.296875-2.53125-1.386719-4.910156-3.152344-7.050781-5.296875zm0 0" fill="#7ccc92"/><g fill="#e51743"><path d="m221.910156 388.179688-68.089844-68.089844c-10.726562-12.25-10.253906-30.894532 1.429688-42.574219l2.261719-2.265625-15-14.996094-17.261719 17.261719c-11.679688 11.679687-12.15625 30.324219-1.425781 42.574219l68.089843 68.089844c10 8.761718 24.265626 10.050781 35.523438 3.867187-1.945312-1.066406-3.800781-2.355469-5.527344-3.867187zm0 0"/><path d="m290.296875 142.464844 17.214844-17.214844c2.144531-2.140625 4.523437-3.90625 7.050781-5.296875-11.84375-6.5-27.011719-4.738281-37.046875 5.296875l-17.214844 17.214844 109.234375 109.234375 15-14.996094zm0 0"/><path d="m211.773438 220.988281 24.261718-24.261719-14.996094-15-39.265624 39.261719 109.238281 109.238281 14.996093-15zm0 0"/></g><path d="m377.835938 170.867188 6.222656-2.351563c13.609375-5.140625 27.730468-12.492187 41.976562-21.855469l-8.234375-12.53125c-13.328125 8.753906-26.460937 15.605469-39.039062 20.355469l-12.5625 4.746094-1.410157-1.410157 33.359376-33.363281-10.605469-10.605469-33.359375 33.359376-1.414063-1.410157 4.746094-12.558593c4.75-12.578126 11.601563-25.714844 20.359375-39.042969l-12.535156-8.234375c-9.363282 14.246094-16.714844 28.367187-21.855469 41.976562l-2.351563 6.222656-14.21875-14.21875c-15.082031-15.078124-39.621093-15.078124-54.703124 0l-152.265626 152.265626c-15.082031 15.085937-15.082031 39.625 0 54.707031l14.21875 14.214843-6.222656 2.351563c-13.609375 5.140625-27.730468 12.492187-41.976562 21.855469l8.234375 12.53125c13.328125-8.753906 26.460937-15.605469 39.039062-20.355469l12.5625-4.746094 1.410157 1.414063-33.359376 33.355468 10.605469 10.609376 33.359375-33.359376 1.414063 1.410157-4.746094 12.558593c-4.75 12.578126-11.601563 25.714844-20.359375 39.042969l12.535156 8.234375c9.363282-14.246094 16.714844-28.367187 21.855469-41.976562l2.351563-6.222656 14.214843 14.21875c7.542969 7.539062 17.445313 11.308593 27.351563 11.308593s19.8125-3.769531 27.355468-11.308593l152.261719-152.265626c15.082031-15.082031 15.082031-39.621093 0-54.703124zm3.609374 58.316406-152.265624 152.265625c-4.472657 4.472656-10.417969 6.9375-16.742188 6.9375-6.328125 0-12.273438-2.464844-16.746094-6.9375l-65.140625-65.140625c-4.472656-4.472656-6.9375-10.417969-6.9375-16.746094 0-6.324219 2.464844-12.269531 6.9375-16.742188l11.960938-11.960937 89.789062 89.789063 10.605469-10.605469-89.789062-89.789063 28.65625-28.65625 89.789062 89.789063 10.609375-10.605469-89.792969-89.789062 28.65625-28.65625 89.792969 89.789062 10.605469-10.605469-89.789063-89.789062 28.652344-28.65625 89.792969 89.789062 10.605468-10.605469-89.789062-89.789062 11.910156-11.914062c4.472656-4.472657 10.417969-6.933594 16.742188-6.933594 6.328125 0 12.273437 2.460937 16.746094 6.933594l65.140624 65.140624c4.472657 4.472657 6.9375 10.417969 6.9375 16.746094 0 6.324219-2.464843 12.269532-6.9375 16.742188zm0 0"/><path d="m506.699219 129.402344c-7.222657-7.222656-14.605469-7.574219-19.992188-7.828125-4.5-.214844-6.980469-.332031-10.097656-3.453125-3.121094-3.121094-3.238281-5.597656-3.453125-10.097656-.257812-5.390626-.605469-12.769532-7.828125-19.992188s-14.601563-7.570312-19.992187-7.824219c-4.496094-.214843-6.976563-.332031-10.09375-3.453125-3.121094-3.117187-3.238282-5.597656-3.453126-10.097656-.253906-5.386719-.605468-12.769531-7.828124-19.992188-7.21875-7.21875-14.601563-7.566406-19.988282-7.824218-4.5-.210938-6.976562-.332032-10.097656-3.449219-3.117188-3.121094-3.234375-5.597656-3.449219-10.097656-.253906-5.386719-.605469-12.769531-7.828125-19.988281l-5.304687-5.304688-5.300781 5.304688c-27.605469 27.601562-43.945313 64.277343-46.011719 103.261718l14.980469.792969c1.679687-31.703125 13.789062-61.71875 34.355468-85.605469.050782.695313.085938 1.441406.125 2.25.257813 5.390625.605469 12.769532 7.824219 19.992188 7.222656 7.222656 14.605469 7.570312 19.992187 7.828125 4.5.210937 6.976563.328125 10.097657 3.449219 3.121093 3.117187 3.238281 5.597656 3.449219 10.097656.257812 5.386718.605468 12.769531 7.828124 19.992187 7.222657 7.21875 14.601563 7.570313 19.992188 7.824219 4.496094.214844 6.976562.332031 10.09375 3.449219 3.121094 3.121093 3.238281 5.601562 3.453125 10.101562.253906 5.386719.605469 12.769531 7.828125 19.992188 7.222656 7.21875 14.605469 7.570312 19.992188 7.824219.8125.039062 1.558593.074218 2.257812.125-23.890625 20.570312-53.902344 32.683593-85.609375 34.359374l.792969 14.980469c38.984375-2.066406 75.65625-18.40625 103.261718-46.011719l5.304688-5.300781zm0 0"/><path d="m136.679688 488.25c-.050782-.695312-.085938-1.445312-.125-2.257812-.253907-5.386719-.605469-12.769532-7.824219-19.992188-7.222657-7.222656-14.605469-7.570312-19.992188-7.828125-4.5-.214844-6.980469-.332031-10.101562-3.449219-3.117188-3.121094-3.234375-5.597656-3.449219-10.097656-.253906-5.390625-.605469-12.769531-7.824219-19.992188-7.222656-7.222656-14.605469-7.570312-19.992187-7.824218-4.5-.214844-6.980469-.332032-10.097656-3.453125-3.121094-3.117188-3.238282-5.597657-3.449219-10.09375-.257813-5.390625-.605469-12.773438-7.828125-19.992188-7.222656-7.222656-14.601563-7.570312-19.992188-7.828125-.808594-.035156-1.554687-.074218-2.25-.121094 23.890625-20.570312 53.902344-32.679687 85.601563-34.359374l-.792969-14.980469c-38.980469 2.066406-75.652344 18.40625-103.257812 46.011719l-5.304688 5.300781 5.304688 5.304687c7.21875 7.222656 14.601562 7.570313 19.988281 7.828125 4.5.210938 6.976562.328125 10.097656 3.449219 3.117187 3.121094 3.238281 5.597656 3.449219 10.097656.257812 5.386719.605468 12.769532 7.824218 19.988282 7.222657 7.222656 14.605469 7.570312 19.992188 7.828124 4.5.210938 6.980469.332032 10.097656 3.449219 3.121094 3.121094 3.238282 5.597657 3.453125 10.097657.253907 5.390624.601563 12.769531 7.824219 19.992187s14.605469 7.570313 19.992188 7.828125c4.5.210938 6.976562.328125 10.097656 3.449219 3.121094 3.121093 3.238281 5.601562 3.453125 10.097656.253906 5.390625.605469 12.773437 7.828125 19.992187l5.304687 5.304688 5.300781-5.304688c27.605469-27.601562 43.945313-64.273437 46.011719-103.257812l-14.980469-.792969c-1.679687 31.707031-13.789062 61.71875-34.359374 85.605469zm0 0"/><path d="m210.988281 382.507812-18.226562-18.226562 10.605469-10.609375 18.226562 18.230469zm-25.296875-25.296874-10.605468-10.605469 10.605468-10.605469 10.605469 10.605469zm-17.675781-17.675782-10.605469-10.605468 10.605469-10.609376 10.605469 10.605469zm0 0" fill="#fff"/><path d="m288.445312 305.050781-18.226562-18.226562 10.605469-10.605469 18.226562 18.226562zm-25.296874-25.296875-10.605469-10.605468 10.605469-10.605469 10.605468 10.605469zm-17.679688-17.675781-10.605469-10.605469 10.609375-10.605468 10.605469 10.605468zm0 0" fill="#fff"/><path d="m365.902344 227.59375-18.226563-18.226562 10.605469-10.605469 18.226562 18.226562zm-25.300782-25.296875-10.605468-10.605469 10.609375-10.605468 10.605469 10.605468zm-17.675781-17.675781-10.605469-10.605469 10.605469-10.605469 10.605469 10.605469zm0 0" fill="#fff"/></svg>