<?xml version="1.0" encoding="iso-8859-1"?>
<!-- Generator: Adobe Illustrator 19.1.0, SVG Export Plug-In . SVG Version: 6.00 Build 0)  -->
<svg version="1.1" id="Capa_1" xmlns="http://www.w3.org/2000/svg" xmlns:xlink="http://www.w3.org/1999/xlink" x="0px" y="0px"
	 viewBox="0 0 467.49 467.49" style="enable-background:new 0 0 467.49 467.49;" xml:space="preserve">
<g>
	<g id="XMLID_109_">
		<g>
			<path style="fill:#F93E3E;" d="M330.23,137.265c-35.14-35.14-35.14-92.12,0-127.26l127.26,127.26
				C422.35,172.405,365.37,172.405,330.23,137.265z"/>
			<path style="fill:#F93E3E;" d="M366.44,228.655c0.01,0.45,0.01,0.9,0.01,1.35c0,57.78-35.91,107.17-86.63,127.07
				c-16.16-15.95-28.9-30.7-36.47-44.54c-12.95-22.56-12.21-42.75-5.96-63.22c32.11,16.68,67.53,18.04,129.04-20.66H366.44z
				 M304.95,304.955c4.39-4.39,4.39-11.51,0-15.9c-4.39-4.39-11.51-4.39-15.9,0c-4.39,4.39-4.39,11.51,0,15.9
				C293.44,309.345,300.56,309.345,304.95,304.955z"/>
			<path style="fill:#F93E3E;" d="M357.07,180.195c-15.95,16.16-30.69,28.89-44.54,36.46c-22.56,12.95-42.74,12.21-63.21,5.96
				c16.69-32.11,18.03-67.53-20.67-129.04v-0.01c0.45-0.01,0.9-0.01,1.35-0.01C287.78,93.555,337.17,129.465,357.07,180.195z
				 M304.95,170.955c4.39-4.39,4.39-11.51,0-15.9c-4.39-4.39-11.51-4.39-15.9,0c-4.39,4.39-4.39,11.51,0,15.9
				C293.44,175.345,300.56,175.345,304.95,170.955z"/>
			<circle style="fill:#FFFFFF;" cx="297" cy="163.005" r="11.243"/>
			<circle style="fill:#FFFFFF;" cx="297" cy="297.005" r="11.243"/>
			<path style="fill:#F93E3E;" d="M231.36,366.425v0.02c-0.45,0.01-0.91,0.01-1.36,0.01c-57.77,0-107.17-35.91-127.07-86.64
				c15.95-16.16,30.7-28.9,44.55-36.46c22.56-12.95,42.74-12.21,63.21-5.96C194.01,269.505,192.66,304.925,231.36,366.425z
				 M170.95,304.955c4.39-4.39,4.39-11.51,0-15.9c-4.39-4.39-11.5-4.39-15.89,0c-4.39,4.39-4.39,11.51,0,15.9
				C159.45,309.345,166.56,309.345,170.95,304.955z"/>
			<path style="fill:#F93E3E;" d="M216.65,147.475c12.95,22.56,12.21,42.75,5.97,63.21c-32.12-16.69-67.53-18.03-129.04,20.67h-0.02
				c-0.01-0.45-0.01-0.9-0.01-1.35c0-57.78,35.92-107.17,86.64-127.08C196.35,118.875,209.09,133.625,216.65,147.475z
				 M170.95,170.955c4.39-4.39,4.39-11.51,0-15.9c-4.39-4.39-11.5-4.39-15.89,0c-4.39,4.39-4.39,11.51,0,15.9
				S166.56,175.345,170.95,170.955z"/>
			<path style="fill:#FFFFFF;" d="M170.95,155.055c4.39,4.39,4.39,11.51,0,15.9s-11.5,4.39-15.89,0s-4.39-11.51,0-15.9
				C159.45,150.665,166.56,150.665,170.95,155.055z"/>
			<path style="fill:#FFFFFF;" d="M170.95,289.055c4.39,4.39,4.39,11.51,0,15.9c-4.39,4.39-11.5,4.39-15.89,0
				c-4.39-4.39-4.39-11.51,0-15.9C159.45,284.665,166.56,284.665,170.95,289.055z"/>
			<path style="fill:#F93E3E;" d="M137.26,330.235c35.14,35.14,35.14,92.11,0,127.25L10,330.235
				C45.14,295.085,102.12,295.085,137.26,330.235z"/>
		</g>
		<g>
			<path style="fill:none;stroke:#000000;stroke-width:20;stroke-linecap:round;stroke-linejoin:round;stroke-miterlimit:10;" d="
				M279.82,357.075c50.72-19.9,86.63-69.29,86.63-127.07c0-0.45,0-0.9-0.01-1.35c-0.16-17.09-3.47-33.43-9.37-48.46
				c-19.9-50.73-69.29-86.64-127.07-86.64c-0.45,0-0.9,0-1.35,0.01c-17.09,0.16-33.42,3.47-48.46,9.36
				c-50.72,19.91-86.64,69.3-86.64,127.08c0,0.45,0,0.9,0.01,1.35c0.16,17.09,3.47,33.43,9.37,48.46
				c19.9,50.73,69.3,86.64,127.07,86.64c0.45,0,0.91,0,1.36-0.01C248.45,366.285,264.79,362.975,279.82,357.075z"/>
			<path style="fill:none;stroke:#000000;stroke-width:20;stroke-linejoin:round;stroke-miterlimit:10;" d="M457.49,137.265
				c-35.14,35.14-92.12,35.14-127.26,0s-35.14-92.12,0-127.26L457.49,137.265z"/>
			<path style="fill:none;stroke:#000000;stroke-width:20;stroke-linecap:round;stroke-linejoin:round;stroke-miterlimit:10;" d="
				M397.3,118.655c-23.66,23.66-53.69,31.99-67.07,18.61c-13.38-13.38-5.05-43.41,18.61-67.07"/>
			<path style="fill:none;stroke:#000000;stroke-width:20;stroke-linejoin:round;stroke-miterlimit:10;" d="M10,330.235
				c35.14-35.15,92.12-35.15,127.26,0c35.14,35.14,35.14,92.11,0,127.25L10,330.235z"/>
			<path style="fill:none;stroke:#000000;stroke-width:20;stroke-linecap:round;stroke-linejoin:round;stroke-miterlimit:10;" d="
				M70.2,348.835c23.66-23.66,53.68-31.99,67.06-18.6c13.38,13.38,5.05,43.4-18.6,67.06"/>
			<path style="fill:none;stroke:#000000;stroke-width:20;stroke-linejoin:round;stroke-miterlimit:10;" d="M102.93,279.815
				c15.95-16.16,30.7-28.9,44.55-36.46c22.56-12.95,42.74-12.21,63.21-5.96c-16.68,32.11-18.03,67.53,20.67,129.03"/>
			<path style="fill:none;stroke:#000000;stroke-width:20;stroke-linejoin:round;stroke-miterlimit:10;" d="M279.82,357.075
				c-16.16-15.95-28.9-30.7-36.47-44.54c-12.95-22.56-12.21-42.75-5.96-63.22c32.11,16.68,67.53,18.04,129.04-20.66"/>
			<path style="fill:none;stroke:#000000;stroke-width:20;stroke-linejoin:round;stroke-miterlimit:10;" d="M228.65,93.575
				c38.7,61.51,37.36,96.93,20.67,129.04c20.47,6.25,40.65,6.99,63.21-5.96c13.85-7.57,28.59-20.3,44.54-36.46l0.01-0.01"/>
			<path style="fill:none;stroke:#000000;stroke-width:20;stroke-linejoin:round;stroke-miterlimit:10;" d="M180.19,102.925
				c16.16,15.95,28.9,30.7,36.46,44.55c12.95,22.56,12.21,42.75,5.97,63.21c-32.12-16.69-67.53-18.03-129.04,20.67"/>
		</g>
	</g>
</g>
<g>
</g>
<g>
</g>
<g>
</g>
<g>
</g>
<g>
</g>
<g>
</g>
<g>
</g>
<g>
</g>
<g>
</g>
<g>
</g>
<g>
</g>
<g>
</g>
<g>
</g>
<g>
</g>
<g>
</g>
</svg>
