<?xml version="1.0" encoding="iso-8859-1"?>
<!-- Generator: Adobe Illustrator 19.0.0, SVG Export Plug-In . SVG Version: 6.00 Build 0)  -->
<svg version="1.1" id="Layer_1" xmlns="http://www.w3.org/2000/svg" xmlns:xlink="http://www.w3.org/1999/xlink" x="0px" y="0px"
	 viewBox="0 0 512 512" style="enable-background:new 0 0 512 512;" xml:space="preserve">
<path style="fill:#6E4013;" d="M256,512c-4.635,0-8.393-3.758-8.393-8.393V239.213c0-4.635,3.758-8.393,8.393-8.393
	s8.393,3.758,8.393,8.393v264.393C264.393,508.242,260.635,512,256,512z"/>
<path style="fill:#138CAB;" d="M339.934,260.197c-17.906,0-67.077,24.035-83.934,32.549c-16.857-8.514-66.028-32.549-83.934-32.549
	c-23.141,0-41.967,18.826-41.967,41.967s18.826,41.967,41.967,41.967c14.49,0,49.454-15.74,71.203-26.258
	c-2.601,6.905-13.962,34.418-32.988,43.931c-3.838,1.919-5.639,6.6-4.052,10.593c1.794,4.51,7.204,6.599,11.559,4.422
	c19.598-9.798,32.059-32.138,37.96-45.218c5.157,12.366,16.407,32.626,38.057,44.998c4.273,2.439,9.864,0.585,11.847-3.907
	c1.713-3.881,0.162-8.566-3.519-10.669c-23.248-13.284-31.988-39.066-33.535-44.216c21.736,10.518,56.816,26.323,71.337,26.323
	c23.141,0,41.967-18.827,41.967-41.967S363.075,260.197,339.934,260.197z M172.066,327.344c-13.884,0-25.18-11.297-25.18-25.18
	c0-13.884,11.297-25.18,25.18-25.18c9.834,0,40.717,13.396,65.091,25.18C212.782,313.948,181.9,327.344,172.066,327.344z
	 M256.002,311.687c-0.034-0.019-0.07-0.035-0.104-0.053c0.035-0.018,0.068-0.035,0.102-0.051c0.034,0.018,0.067,0.035,0.101,0.051
	C256.068,311.652,256.035,311.668,256.002,311.687z M339.934,327.344c-9.834,0-40.717-13.396-65.091-25.18
	c24.375-11.784,55.257-25.18,65.091-25.18c13.884,0,25.18,11.297,25.18,25.18C365.115,316.048,353.818,327.344,339.934,327.344z"/>
<path style="fill:#F0ECE7;" d="M256,0c-67.108,0-121.705,54.596-121.705,121.705S188.892,243.41,256,243.41
	s121.705-54.596,121.705-121.705S323.108,0,256,0z"/>
<path style="fill:#E2D9D0;" d="M272.787,235.016c-67.108,0-121.705-54.596-121.705-121.705c0-44.274,23.767-83.098,59.209-104.394
	c-44.522,18.109-75.996,61.838-75.996,112.788c0,67.109,54.597,121.705,121.705,121.705c22.834,0,44.216-6.327,62.495-17.31
	C304.375,231.844,288.945,235.016,272.787,235.016z"/>
<path style="fill:#E3451E;" d="M256,0c-67.108,0-121.705,54.596-121.705,121.705c0,1.941,0.049,3.947,0.147,5.965
	c0.165,3.395,2.361,6.357,5.562,7.498c3.2,1.145,6.777,0.241,9.053-2.282c1.622-1.798,3.832-2.788,6.222-2.788
	c4.628,0,8.393,3.766,8.393,8.393v20.984c0,13.884,11.297,25.18,25.18,25.18s25.18-11.297,25.18-25.18v-12.59
	c0-4.628,3.766-8.393,8.393-8.393c4.628,0,8.393,3.766,8.393,8.393v8.393c0,13.884,11.297,25.18,25.18,25.18
	c13.884,0,25.18-11.297,25.18-25.18v-41.967c0-4.628,3.766-8.393,8.393-8.393c4.628,0,8.393,3.766,8.393,8.393v46.164
	c0,13.884,11.297,25.18,25.18,25.18c13.884,0,25.18-11.297,25.18-25.18v-25.18c0-4.628,3.766-8.393,8.393-8.393
	c2.426,0,4.656,1.014,6.28,2.853c2.297,2.6,5.956,3.517,9.209,2.312c3.252-1.206,5.427-4.289,5.475-7.758l0.006-0.441
	c0.007-0.387,0.014-0.774,0.014-1.164C377.705,54.596,323.108,0,256,0z"/>
<path style="fill:#C93626;" d="M210.291,8.917c-44.522,18.109-75.996,61.838-75.996,112.788c0,1.941,0.049,3.947,0.147,5.965
	c0.165,3.395,2.361,6.357,5.562,7.498c3.2,1.145,6.777,0.241,9.053-2.282c0.922-1.022,2.039-1.772,3.265-2.239
	c-0.811-5.663-1.24-11.451-1.24-17.336C151.082,69.037,174.849,30.213,210.291,8.917z"/>
<g>
	<path style="fill:#FCD110;" d="M193.049,88.131c-2.148,0-4.296-0.819-5.935-2.458l-4.197-4.197c-3.279-3.279-3.279-8.592,0-11.87
		c3.278-3.277,8.592-3.277,11.869,0l4.197,4.197c3.279,3.279,3.279,8.592,0,11.87C197.346,87.312,195.197,88.131,193.049,88.131z"/>
	<path style="fill:#FCD110;" d="M230.82,67.148c-4.635,0-8.393-3.758-8.393-8.393v-4.197c0-4.635,3.758-8.393,8.393-8.393
		c4.635,0,8.393,3.758,8.393,8.393v4.197C239.213,63.389,235.455,67.148,230.82,67.148z"/>
	<path style="fill:#FCD110;" d="M281.18,71.344c-2.148,0-4.296-0.819-5.935-2.458l-4.197-4.197c-3.279-3.279-3.279-8.592,0-11.87
		c3.278-3.277,8.592-3.277,11.869,0l4.197,4.197c3.279,3.279,3.279,8.592,0,11.87C285.477,70.525,283.328,71.344,281.18,71.344z"/>
	<path style="fill:#FCD110;" d="M235.016,113.311c-2.148,0-4.296-0.819-5.935-2.458c-3.279-3.279-3.279-8.592,0-11.87l4.197-4.197
		c3.278-3.277,8.592-3.277,11.869,0c3.279,3.279,3.279,8.592,0,11.87l-4.197,4.197C239.313,112.492,237.164,113.311,235.016,113.311
		z"/>
	<path style="fill:#FCD110;" d="M323.148,104.918c-2.148,0-4.296-0.819-5.935-2.458c-3.279-3.279-3.279-8.592,0-11.87l4.197-4.197
		c3.278-3.277,8.592-3.277,11.869,0c3.279,3.279,3.279,8.592,0,11.87l-4.197,4.197C327.444,104.099,325.295,104.918,323.148,104.918
		z"/>
</g>
<circle style="fill:#FF9736;" cx="310.557" cy="46.164" r="16.787"/>
<g>
</g>
<g>
</g>
<g>
</g>
<g>
</g>
<g>
</g>
<g>
</g>
<g>
</g>
<g>
</g>
<g>
</g>
<g>
</g>
<g>
</g>
<g>
</g>
<g>
</g>
<g>
</g>
<g>
</g>
</svg>
