<?xml version="1.0" encoding="iso-8859-1"?>
<!-- Generator: Adobe Illustrator 19.0.0, SVG Export Plug-In . SVG Version: 6.00 Build 0)  -->
<svg version="1.1" id="Capa_1" xmlns="http://www.w3.org/2000/svg" xmlns:xlink="http://www.w3.org/1999/xlink" x="0px" y="0px"
	 viewBox="0 0 469.999 469.999" style="enable-background:new 0 0 469.999 469.999;" xml:space="preserve">
<g>
	<path d="M272.663,141.08c52.525-42.818,73.422-115.044,74.352-118.338c0.638-2.262,0.181-4.69-1.237-6.564
		c-1.417-1.873-3.631-2.974-5.98-2.974c-11.316,0-16.649-2.688-22.823-5.8C310.088,3.934,302.282,0,287.4,0
		c-14.883,0-22.689,3.934-29.576,7.404c-6.175,3.112-11.508,5.8-22.825,5.8s-16.65-2.688-22.825-5.8
		C205.288,3.934,197.482,0,182.599,0c-14.882,0-22.688,3.934-29.574,7.404c-6.174,3.112-11.507,5.8-22.823,5.8
		c-2.349,0-4.563,1.101-5.98,2.974c-1.418,1.874-1.875,4.303-1.237,6.564c0.93,3.294,21.827,75.52,74.352,118.338
		c-51.693,16.085-89.33,64.375-89.33,121.292v177.782c0,3.025,1.818,5.755,4.609,6.921c2.241,0.936,55.654,22.924,122.384,22.924
		s120.143-21.988,122.384-22.924c2.792-1.166,4.609-3.896,4.609-6.921V262.372C361.993,205.456,324.356,157.166,272.663,141.08z
		 M159.776,20.8c6.174-3.112,11.507-5.8,22.823-5.8c11.317,0,16.65,2.688,22.825,5.8c6.887,3.471,14.692,7.404,29.576,7.404
		s22.689-3.934,29.576-7.404c6.175-3.112,11.508-5.8,22.825-5.8c11.316,0,16.649,2.688,22.823,5.8
		c5.127,2.584,10.763,5.425,19.45,6.707c-7.731,21.829-31.347,78.671-76.187,109.16c3.262-8.229,6.35-17.976,9.222-29.125
		c1.033-4.011-1.381-8.101-5.393-9.133c-4.008-1.034-8.101,1.381-9.134,5.393c-3.254,12.635-6.75,23.234-10.418,31.613
		c-0.92-0.02-1.841-0.035-2.765-0.035c-0.924,0-1.844,0.015-2.763,0.035C220.683,109.04,213.627,67,210.369,43.48
		c-0.569-4.103-4.354-6.969-8.458-6.399c-4.103,0.568-6.968,4.355-6.4,8.458c3.857,27.836,10.509,64.724,20.997,91.124
		c-44.752-30.438-68.42-87.319-76.173-109.157C149.016,26.223,154.65,23.383,159.776,20.8z M235,150.379
		c52.207,0,96.181,35.908,108.531,84.323l-42.033-32.264c-2.371-1.819-5.597-2.059-8.209-0.607
		c-2.613,1.452-4.114,4.316-3.822,7.291l5.597,56.891l-33.751-45.854c-1.724-2.342-4.646-3.474-7.499-2.91
		c-2.853,0.565-5.121,2.729-5.821,5.552l-12.993,52.41l-12.994-52.41c-0.7-2.823-2.968-4.986-5.821-5.552
		c-2.854-0.568-5.776,0.567-7.499,2.91l-33.752,45.854l5.597-56.892c0.293-2.975-1.209-5.839-3.822-7.291
		c-2.612-1.45-5.838-1.212-8.209,0.607l-42.03,32.263C138.82,186.286,182.794,150.379,235,150.379z M123.006,262.372
		c0-2.094,0.063-4.174,0.177-6.241l40.725-31.261l-6.575,66.828c-0.331,3.36,1.625,6.527,4.778,7.737
		c3.152,1.209,6.725,0.163,8.726-2.557l40.455-54.959l16.428,66.261c0.83,3.346,3.833,5.695,7.28,5.695
		c3.447,0,6.45-2.35,7.28-5.695l16.427-66.26l40.453,54.959c2.001,2.718,5.573,3.765,8.726,2.557
		c3.153-1.21,5.108-4.377,4.778-7.737l-6.574-66.828l40.727,31.262c0.114,2.066,0.177,4.145,0.177,6.239v172.625
		c-14.166,5.187-59.257,20.002-111.993,20.002c-52.74,0-97.833-14.817-111.993-20.002V262.372z"/>
	<path d="M176.219,400.889c-4.142,0-7.5,3.357-7.5,7.5v13.322c0,4.143,3.358,7.5,7.5,7.5s7.5-3.357,7.5-7.5v-13.322
		C183.719,404.246,180.361,400.889,176.219,400.889z"/>
	<path d="M295.712,429.211c4.142,0,7.5-3.357,7.5-7.5v-13.322c0-4.143-3.358-7.5-7.5-7.5s-7.5,3.357-7.5,7.5v13.322
		C288.212,425.854,291.57,429.211,295.712,429.211z"/>
	<path d="M176.219,316.087c-4.142,0-7.5,3.357-7.5,7.5v13.323c0,4.143,3.358,7.5,7.5,7.5s7.5-3.357,7.5-7.5v-13.323
		C183.719,319.444,180.361,316.087,176.219,316.087z"/>
	<path d="M243.465,379.311v-13.322c0-4.143-3.358-7.5-7.5-7.5s-7.5,3.357-7.5,7.5v13.322c0,4.143,3.358,7.5,7.5,7.5
		S243.465,383.453,243.465,379.311z"/>
	<path d="M295.712,344.41c4.142,0,7.5-3.357,7.5-7.5v-13.323c0-4.143-3.358-7.5-7.5-7.5s-7.5,3.357-7.5,7.5v13.323
		C288.212,341.053,291.57,344.41,295.712,344.41z"/>
	<path d="M260.499,83.741c0.469,0.089,0.936,0.131,1.396,0.131c3.536,0,6.684-2.512,7.362-6.113
		c1.927-10.238,3.688-21.078,5.231-32.218c0.568-4.103-2.297-7.89-6.399-8.458c-4.107-0.567-7.89,2.297-8.459,6.399
		c-1.511,10.901-3.231,21.5-5.114,31.501C253.75,79.055,256.429,82.976,260.499,83.741z"/>
</g>
<g>
</g>
<g>
</g>
<g>
</g>
<g>
</g>
<g>
</g>
<g>
</g>
<g>
</g>
<g>
</g>
<g>
</g>
<g>
</g>
<g>
</g>
<g>
</g>
<g>
</g>
<g>
</g>
<g>
</g>
</svg>
